<mxfile host="app.diagrams.net" modified="2023-03-31T21:01:26.628Z" agent="Mozilla/5.0 (Windows NT 10.0; Win64; x64) AppleWebKit/537.36 (KHTML, like Gecko) Chrome/111.0.0.0 Safari/537.36" etag="mHyXQ0t9S5klV-G3mWfO" version="21.1.2" type="device">
  <diagram name="Page-1" id="HbbwzKXfuC2S9ga31OcZ">
    <mxGraphModel dx="2131" dy="716" grid="1" gridSize="10" guides="1" tooltips="1" connect="1" arrows="1" fold="1" page="1" pageScale="1" pageWidth="827" pageHeight="1169" math="0" shadow="0">
      <root>
        <mxCell id="0" />
        <mxCell id="1" parent="0" />
        <mxCell id="RA3LMfkqZ-c23zv8aBDw-18" value="" style="whiteSpace=wrap;html=1;aspect=fixed;" parent="1" vertex="1">
          <mxGeometry x="-290" y="218.5" width="320" height="320" as="geometry" />
        </mxCell>
        <mxCell id="RA3LMfkqZ-c23zv8aBDw-8" value="" style="ellipse;shape=cloud;whiteSpace=wrap;html=1;" parent="1" vertex="1">
          <mxGeometry x="209" y="110" width="410" height="410" as="geometry" />
        </mxCell>
        <mxCell id="RA3LMfkqZ-c23zv8aBDw-1" value="PE1&lt;br&gt;# 1" style="ellipse;whiteSpace=wrap;html=1;aspect=fixed;" parent="1" vertex="1">
          <mxGeometry x="224" y="300" width="60" height="60" as="geometry" />
        </mxCell>
        <mxCell id="RA3LMfkqZ-c23zv8aBDw-2" value="P1&lt;br&gt;# 2" style="ellipse;whiteSpace=wrap;html=1;aspect=fixed;" parent="1" vertex="1">
          <mxGeometry x="384" y="210" width="60" height="60" as="geometry" />
        </mxCell>
        <mxCell id="RA3LMfkqZ-c23zv8aBDw-3" value="P2&lt;br&gt;# 3" style="ellipse;whiteSpace=wrap;html=1;aspect=fixed;" parent="1" vertex="1">
          <mxGeometry x="384" y="380" width="60" height="60" as="geometry" />
        </mxCell>
        <mxCell id="RA3LMfkqZ-c23zv8aBDw-4" value="PE2&lt;br&gt;# 4" style="ellipse;whiteSpace=wrap;html=1;aspect=fixed;" parent="1" vertex="1">
          <mxGeometry x="544" y="300" width="60" height="60" as="geometry" />
        </mxCell>
        <mxCell id="RA3LMfkqZ-c23zv8aBDw-5" value="" style="endArrow=none;html=1;rounded=0;exitX=1;exitY=0;exitDx=0;exitDy=0;entryX=0;entryY=0.5;entryDx=0;entryDy=0;" parent="1" source="RA3LMfkqZ-c23zv8aBDw-1" target="RA3LMfkqZ-c23zv8aBDw-2" edge="1">
          <mxGeometry width="50" height="50" relative="1" as="geometry">
            <mxPoint x="414" y="480" as="sourcePoint" />
            <mxPoint x="464" y="430" as="targetPoint" />
          </mxGeometry>
        </mxCell>
        <mxCell id="RA3LMfkqZ-c23zv8aBDw-6" value="" style="endArrow=none;html=1;rounded=0;entryX=0.5;entryY=1;entryDx=0;entryDy=0;" parent="1" target="RA3LMfkqZ-c23zv8aBDw-2" edge="1">
          <mxGeometry width="50" height="50" relative="1" as="geometry">
            <mxPoint x="414" y="380" as="sourcePoint" />
            <mxPoint x="464" y="430" as="targetPoint" />
          </mxGeometry>
        </mxCell>
        <mxCell id="RA3LMfkqZ-c23zv8aBDw-7" value="" style="endArrow=none;html=1;rounded=0;" parent="1" source="RA3LMfkqZ-c23zv8aBDw-31" edge="1">
          <mxGeometry width="50" height="50" relative="1" as="geometry">
            <mxPoint x="438" y="380" as="sourcePoint" />
            <mxPoint x="544" y="330" as="targetPoint" />
          </mxGeometry>
        </mxCell>
        <mxCell id="RA3LMfkqZ-c23zv8aBDw-9" value="&lt;font style=&quot;font-size: 14px;&quot;&gt;&lt;b&gt;ASP Backbone&lt;/b&gt;&lt;/font&gt;" style="rounded=1;whiteSpace=wrap;html=1;" parent="1" vertex="1">
          <mxGeometry x="294" y="130" width="120" height="60" as="geometry" />
        </mxCell>
        <mxCell id="RA3LMfkqZ-c23zv8aBDw-11" value="Red telecom CE1&lt;br&gt;# 1" style="ellipse;whiteSpace=wrap;html=1;aspect=fixed;" parent="1" vertex="1">
          <mxGeometry x="-10" y="305" width="60" height="60" as="geometry" />
        </mxCell>
        <mxCell id="RA3LMfkqZ-c23zv8aBDw-19" value="&lt;font style=&quot;font-size: 14px;&quot;&gt;&lt;b&gt;Red telecom AS 101&lt;br&gt;# 1&lt;br&gt;(site A)&lt;br&gt;&lt;/b&gt;&lt;/font&gt;" style="rounded=1;whiteSpace=wrap;html=1;" parent="1" vertex="1">
          <mxGeometry x="-310" y="178.5" width="150" height="60" as="geometry" />
        </mxCell>
        <mxCell id="RA3LMfkqZ-c23zv8aBDw-20" style="edgeStyle=orthogonalEdgeStyle;rounded=0;orthogonalLoop=1;jettySize=auto;html=1;exitX=0.5;exitY=1;exitDx=0;exitDy=0;" parent="1" source="RA3LMfkqZ-c23zv8aBDw-18" target="RA3LMfkqZ-c23zv8aBDw-18" edge="1">
          <mxGeometry relative="1" as="geometry" />
        </mxCell>
        <mxCell id="RA3LMfkqZ-c23zv8aBDw-21" value="" style="whiteSpace=wrap;html=1;aspect=fixed;" parent="1" vertex="1">
          <mxGeometry x="789" y="199" width="320" height="320" as="geometry" />
        </mxCell>
        <mxCell id="RA3LMfkqZ-c23zv8aBDw-22" value="Red telecom CE2&lt;br&gt;# 2" style="ellipse;whiteSpace=wrap;html=1;aspect=fixed;" parent="1" vertex="1">
          <mxGeometry x="760" y="300" width="60" height="60" as="geometry" />
        </mxCell>
        <mxCell id="RA3LMfkqZ-c23zv8aBDw-23" value="&lt;font style=&quot;font-size: 14px;&quot;&gt;&lt;b&gt;Red telecom AS 101&lt;br&gt;# 1&lt;br&gt;(site A)&lt;br&gt;&lt;/b&gt;&lt;/font&gt;" style="rounded=1;whiteSpace=wrap;html=1;" parent="1" vertex="1">
          <mxGeometry x="769" y="159" width="150" height="60" as="geometry" />
        </mxCell>
        <mxCell id="RA3LMfkqZ-c23zv8aBDw-24" style="edgeStyle=orthogonalEdgeStyle;rounded=0;orthogonalLoop=1;jettySize=auto;html=1;exitX=0.5;exitY=1;exitDx=0;exitDy=0;" parent="1" source="RA3LMfkqZ-c23zv8aBDw-21" target="RA3LMfkqZ-c23zv8aBDw-21" edge="1">
          <mxGeometry relative="1" as="geometry" />
        </mxCell>
        <mxCell id="RA3LMfkqZ-c23zv8aBDw-26" value="" style="endArrow=none;html=1;rounded=0;entryX=0;entryY=0.5;entryDx=0;entryDy=0;" parent="1" source="RA3LMfkqZ-c23zv8aBDw-4" target="RA3LMfkqZ-c23zv8aBDw-22" edge="1">
          <mxGeometry width="50" height="50" relative="1" as="geometry">
            <mxPoint x="470" y="500" as="sourcePoint" />
            <mxPoint x="520" y="450" as="targetPoint" />
          </mxGeometry>
        </mxCell>
        <mxCell id="RA3LMfkqZ-c23zv8aBDw-30" value="g1/0" style="text;html=1;strokeColor=#6c8ebf;fillColor=#dae8fc;align=center;verticalAlign=middle;whiteSpace=wrap;rounded=0;" parent="1" vertex="1">
          <mxGeometry x="260" y="280" width="60" height="30" as="geometry" />
        </mxCell>
        <mxCell id="RA3LMfkqZ-c23zv8aBDw-32" value="g2/0" style="text;html=1;strokeColor=#6c8ebf;fillColor=#dae8fc;align=center;verticalAlign=middle;whiteSpace=wrap;rounded=0;" parent="1" vertex="1">
          <mxGeometry x="164" y="300" width="60" height="30" as="geometry" />
        </mxCell>
        <mxCell id="RA3LMfkqZ-c23zv8aBDw-33" value="g2/0" style="text;html=1;strokeColor=#6c8ebf;fillColor=#dae8fc;align=center;verticalAlign=middle;whiteSpace=wrap;rounded=0;" parent="1" vertex="1">
          <mxGeometry x="600" y="300" width="60" height="30" as="geometry" />
        </mxCell>
        <mxCell id="RA3LMfkqZ-c23zv8aBDw-34" value="g1/0" style="text;html=1;strokeColor=#6c8ebf;fillColor=#dae8fc;align=center;verticalAlign=middle;whiteSpace=wrap;rounded=0;" parent="1" vertex="1">
          <mxGeometry x="330" y="225" width="60" height="30" as="geometry" />
        </mxCell>
        <mxCell id="RA3LMfkqZ-c23zv8aBDw-35" value="g2/0" style="text;html=1;strokeColor=#6c8ebf;fillColor=#dae8fc;align=center;verticalAlign=middle;whiteSpace=wrap;rounded=0;" parent="1" vertex="1">
          <mxGeometry x="384" y="270" width="60" height="30" as="geometry" />
        </mxCell>
        <mxCell id="RA3LMfkqZ-c23zv8aBDw-36" value="g1/0" style="text;html=1;strokeColor=#6c8ebf;fillColor=#dae8fc;align=center;verticalAlign=middle;whiteSpace=wrap;rounded=0;" parent="1" vertex="1">
          <mxGeometry x="380" y="350" width="60" height="30" as="geometry" />
        </mxCell>
        <mxCell id="RA3LMfkqZ-c23zv8aBDw-41" value="100.100.100.2/24" style="text;html=1;strokeColor=#82b366;fillColor=#d5e8d4;align=center;verticalAlign=middle;whiteSpace=wrap;rounded=0;" parent="1" vertex="1">
          <mxGeometry x="600" y="330" width="101" height="30" as="geometry" />
        </mxCell>
        <mxCell id="RA3LMfkqZ-c23zv8aBDw-44" value="" style="endArrow=none;html=1;rounded=0;" parent="1" source="RA3LMfkqZ-c23zv8aBDw-3" target="RA3LMfkqZ-c23zv8aBDw-31" edge="1">
          <mxGeometry width="50" height="50" relative="1" as="geometry">
            <mxPoint x="440" y="394" as="sourcePoint" />
            <mxPoint x="544" y="330" as="targetPoint" />
          </mxGeometry>
        </mxCell>
        <mxCell id="RA3LMfkqZ-c23zv8aBDw-31" value="g1/0" style="text;html=1;strokeColor=#6c8ebf;fillColor=#dae8fc;align=center;verticalAlign=middle;whiteSpace=wrap;rounded=0;" parent="1" vertex="1">
          <mxGeometry x="490" y="315" width="60" height="30" as="geometry" />
        </mxCell>
        <mxCell id="RA3LMfkqZ-c23zv8aBDw-38" value="g2/0" style="text;html=1;strokeColor=#6c8ebf;fillColor=#dae8fc;align=center;verticalAlign=middle;whiteSpace=wrap;rounded=0;" parent="1" vertex="1">
          <mxGeometry x="430" y="380" width="60" height="30" as="geometry" />
        </mxCell>
        <mxCell id="RA3LMfkqZ-c23zv8aBDw-46" value="" style="endArrow=none;html=1;rounded=0;entryX=1;entryY=0.5;entryDx=0;entryDy=0;exitX=0.033;exitY=0.617;exitDx=0;exitDy=0;exitPerimeter=0;" parent="1" source="RA3LMfkqZ-c23zv8aBDw-1" target="RA3LMfkqZ-c23zv8aBDw-11" edge="1">
          <mxGeometry width="50" height="50" relative="1" as="geometry">
            <mxPoint x="124" y="480" as="sourcePoint" />
            <mxPoint x="280" y="480" as="targetPoint" />
          </mxGeometry>
        </mxCell>
        <mxCell id="RA3LMfkqZ-c23zv8aBDw-40" value="100.100.100.1/24" style="text;html=1;strokeColor=#82b366;fillColor=#d5e8d4;align=center;verticalAlign=middle;whiteSpace=wrap;rounded=0;" parent="1" vertex="1">
          <mxGeometry x="124" y="330" width="100" height="30" as="geometry" />
        </mxCell>
        <mxCell id="HQhcmVMcVsnuWmygZg2j-1" value="" style="endArrow=none;dashed=1;html=1;dashPattern=1 3;strokeWidth=2;rounded=0;entryX=0;entryY=1;entryDx=0;entryDy=0;exitX=1;exitY=1;exitDx=0;exitDy=0;" edge="1" parent="1" source="RA3LMfkqZ-c23zv8aBDw-11" target="RA3LMfkqZ-c23zv8aBDw-22">
          <mxGeometry width="50" height="50" relative="1" as="geometry">
            <mxPoint x="310" y="380" as="sourcePoint" />
            <mxPoint x="360" y="330" as="targetPoint" />
            <Array as="points">
              <mxPoint x="420" y="590" />
            </Array>
          </mxGeometry>
        </mxCell>
        <mxCell id="HQhcmVMcVsnuWmygZg2j-2" value="VPN" style="text;html=1;strokeColor=none;fillColor=none;align=center;verticalAlign=middle;whiteSpace=wrap;rounded=0;" vertex="1" parent="1">
          <mxGeometry x="430" y="580" width="60" height="30" as="geometry" />
        </mxCell>
      </root>
    </mxGraphModel>
  </diagram>
</mxfile>
